<mxfile host="app.diagrams.net" agent="Mozilla/5.0 (Macintosh; Intel Mac OS X 10.15; rv:142.0) Gecko/20100101 Firefox/142.0" version="28.2.1">
  <diagram name="Page-1" id="3w9bhv5lWGm7-g_I4Tj6">
    <mxGraphModel dx="915" dy="730" grid="1" gridSize="10" guides="1" tooltips="1" connect="1" arrows="1" fold="1" page="1" pageScale="1" pageWidth="980" pageHeight="690" math="0" shadow="0">
      <root>
        <mxCell id="0" />
        <mxCell id="1" parent="0" />
        <mxCell id="FWnUGxDhom7YC9OjYNfa-80" value="" style="shape=parallelogram;perimeter=parallelogramPerimeter;whiteSpace=wrap;html=1;fixedSize=1;strokeColor=#000000;fillColor=#FFFFFF;strokeWidth=2;size=70;rounded=1;opacity=60;" parent="1" vertex="1">
          <mxGeometry x="110" y="346" width="650" height="110" as="geometry" />
        </mxCell>
        <mxCell id="FWnUGxDhom7YC9OjYNfa-109" style="edgeStyle=none;shape=connector;rounded=0;orthogonalLoop=1;jettySize=auto;html=1;exitX=0.5;exitY=1;exitDx=0;exitDy=0;entryX=0.5;entryY=0;entryDx=0;entryDy=0;dashed=1;strokeColor=#FF6666;strokeWidth=2;align=center;verticalAlign=middle;fontFamily=Helvetica;fontSize=11;fontColor=default;labelBackgroundColor=default;endArrow=classicThin;endFill=1;" parent="1" source="FWnUGxDhom7YC9OjYNfa-67" target="FWnUGxDhom7YC9OjYNfa-85" edge="1">
          <mxGeometry relative="1" as="geometry" />
        </mxCell>
        <mxCell id="FWnUGxDhom7YC9OjYNfa-62" value="" style="shape=parallelogram;perimeter=parallelogramPerimeter;whiteSpace=wrap;html=1;fixedSize=1;strokeColor=#000000;fillColor=#FFFFFF;strokeWidth=2;size=70;rounded=1;opacity=60;" parent="1" vertex="1">
          <mxGeometry x="110" y="216" width="650" height="110" as="geometry" />
        </mxCell>
        <mxCell id="FWnUGxDhom7YC9OjYNfa-106" style="edgeStyle=none;shape=connector;rounded=0;orthogonalLoop=1;jettySize=auto;html=1;exitX=0.5;exitY=1;exitDx=0;exitDy=0;entryX=0.5;entryY=0;entryDx=0;entryDy=0;strokeColor=#FF6666;strokeWidth=2;align=center;verticalAlign=middle;fontFamily=Helvetica;fontSize=11;fontColor=default;labelBackgroundColor=default;endArrow=classicThin;endFill=1;dashed=1;" parent="1" source="FWnUGxDhom7YC9OjYNfa-49" target="FWnUGxDhom7YC9OjYNfa-77" edge="1">
          <mxGeometry relative="1" as="geometry" />
        </mxCell>
        <mxCell id="FWnUGxDhom7YC9OjYNfa-1" value="" style="shape=parallelogram;perimeter=parallelogramPerimeter;whiteSpace=wrap;html=1;fixedSize=1;strokeColor=#000000;fillColor=light-dark(#ffffff, #121212);strokeWidth=2;size=70;rounded=1;opacity=60;" parent="1" vertex="1">
          <mxGeometry x="110" y="86" width="650" height="110" as="geometry" />
        </mxCell>
        <mxCell id="dLKc0o8yFrBXDjnUZ-SF-5" style="edgeStyle=none;shape=connector;rounded=0;orthogonalLoop=1;jettySize=auto;html=1;exitX=0;exitY=0.5;exitDx=0;exitDy=0;entryX=1;entryY=0.5;entryDx=0;entryDy=0;dashed=1;strokeColor=#FF6666;strokeWidth=2;align=center;verticalAlign=middle;fontFamily=Helvetica;fontSize=11;fontColor=default;labelBackgroundColor=default;endArrow=classicThin;endFill=1;" edge="1" parent="1" source="FWnUGxDhom7YC9OjYNfa-45" target="FWnUGxDhom7YC9OjYNfa-49">
          <mxGeometry relative="1" as="geometry" />
        </mxCell>
        <mxCell id="FWnUGxDhom7YC9OjYNfa-45" value="" style="ellipse;whiteSpace=wrap;html=1;strokeWidth=2;fillColor=#A9C4EB;strokeColor=#FF6666;dashed=1;" parent="1" vertex="1">
          <mxGeometry x="370" y="146" width="30" height="15" as="geometry" />
        </mxCell>
        <mxCell id="dLKc0o8yFrBXDjnUZ-SF-4" style="edgeStyle=none;shape=connector;rounded=0;orthogonalLoop=1;jettySize=auto;html=1;exitX=0;exitY=0.5;exitDx=0;exitDy=0;entryX=1;entryY=0.5;entryDx=0;entryDy=0;dashed=1;strokeColor=#FF6666;strokeWidth=2;align=center;verticalAlign=middle;fontFamily=Helvetica;fontSize=11;fontColor=default;labelBackgroundColor=default;endArrow=classicThin;endFill=1;" edge="1" parent="1" source="FWnUGxDhom7YC9OjYNfa-46" target="FWnUGxDhom7YC9OjYNfa-45">
          <mxGeometry relative="1" as="geometry" />
        </mxCell>
        <mxCell id="FWnUGxDhom7YC9OjYNfa-46" value="" style="ellipse;whiteSpace=wrap;html=1;strokeWidth=2;fillColor=#A9C4EB;dashed=1;strokeColor=#FF6666;" parent="1" vertex="1">
          <mxGeometry x="620" y="106" width="30" height="15" as="geometry" />
        </mxCell>
        <mxCell id="FWnUGxDhom7YC9OjYNfa-49" value="" style="ellipse;whiteSpace=wrap;html=1;strokeWidth=2;fillColor=#A9C4EB;dashed=1;strokeColor=#FF6666;" parent="1" vertex="1">
          <mxGeometry x="200" y="106" width="30" height="15" as="geometry" />
        </mxCell>
        <mxCell id="FWnUGxDhom7YC9OjYNfa-63" style="rounded=0;orthogonalLoop=1;jettySize=auto;html=1;exitX=0;exitY=0;exitDx=0;exitDy=0;entryX=1;entryY=1;entryDx=0;entryDy=0;endArrow=none;endFill=0;strokeWidth=2;" parent="1" source="FWnUGxDhom7YC9OjYNfa-70" target="FWnUGxDhom7YC9OjYNfa-67" edge="1">
          <mxGeometry relative="1" as="geometry" />
        </mxCell>
        <mxCell id="FWnUGxDhom7YC9OjYNfa-67" value="" style="ellipse;whiteSpace=wrap;html=1;strokeWidth=2;fillColor=#A9C4EB;strokeColor=#FF6666;dashed=1;" parent="1" vertex="1">
          <mxGeometry x="305" y="246" width="30" height="15" as="geometry" />
        </mxCell>
        <mxCell id="FWnUGxDhom7YC9OjYNfa-103" style="edgeStyle=none;shape=connector;rounded=0;orthogonalLoop=1;jettySize=auto;html=1;exitX=1;exitY=0.5;exitDx=0;exitDy=0;entryX=0;entryY=0.5;entryDx=0;entryDy=0;strokeColor=default;strokeWidth=2;align=center;verticalAlign=middle;fontFamily=Helvetica;fontSize=11;fontColor=default;labelBackgroundColor=default;endArrow=none;endFill=0;" parent="1" source="FWnUGxDhom7YC9OjYNfa-70" target="FWnUGxDhom7YC9OjYNfa-72" edge="1">
          <mxGeometry relative="1" as="geometry" />
        </mxCell>
        <mxCell id="FWnUGxDhom7YC9OjYNfa-70" value="" style="ellipse;whiteSpace=wrap;html=1;strokeWidth=2;fillColor=#A9C4EB;" parent="1" vertex="1">
          <mxGeometry x="370" y="276" width="30" height="15" as="geometry" />
        </mxCell>
        <mxCell id="FWnUGxDhom7YC9OjYNfa-71" style="edgeStyle=none;shape=connector;rounded=0;orthogonalLoop=1;jettySize=auto;html=1;exitX=0.5;exitY=1;exitDx=0;exitDy=0;entryX=0.5;entryY=0;entryDx=0;entryDy=0;strokeColor=default;strokeWidth=2;align=center;verticalAlign=middle;fontFamily=Helvetica;fontSize=11;fontColor=default;labelBackgroundColor=default;endArrow=none;endFill=0;" parent="1" source="FWnUGxDhom7YC9OjYNfa-72" target="FWnUGxDhom7YC9OjYNfa-73" edge="1">
          <mxGeometry relative="1" as="geometry">
            <Array as="points">
              <mxPoint x="620" y="266" />
            </Array>
          </mxGeometry>
        </mxCell>
        <mxCell id="FWnUGxDhom7YC9OjYNfa-72" value="" style="ellipse;whiteSpace=wrap;html=1;strokeWidth=2;fillColor=#A9C4EB;" parent="1" vertex="1">
          <mxGeometry x="620" y="236" width="30" height="15" as="geometry" />
        </mxCell>
        <mxCell id="FWnUGxDhom7YC9OjYNfa-73" value="" style="ellipse;whiteSpace=wrap;html=1;strokeWidth=2;fillColor=#A9C4EB;" parent="1" vertex="1">
          <mxGeometry x="585" y="291" width="30" height="15" as="geometry" />
        </mxCell>
        <mxCell id="FWnUGxDhom7YC9OjYNfa-77" value="" style="ellipse;whiteSpace=wrap;html=1;strokeWidth=2;fillColor=#A9C4EB;dashed=1;strokeColor=#FF6666;" parent="1" vertex="1">
          <mxGeometry x="200" y="236" width="30" height="15" as="geometry" />
        </mxCell>
        <mxCell id="FWnUGxDhom7YC9OjYNfa-81" style="rounded=0;orthogonalLoop=1;jettySize=auto;html=1;exitX=0;exitY=0;exitDx=0;exitDy=0;entryX=1;entryY=1;entryDx=0;entryDy=0;endArrow=none;endFill=0;strokeWidth=2;" parent="1" source="FWnUGxDhom7YC9OjYNfa-88" target="FWnUGxDhom7YC9OjYNfa-85" edge="1">
          <mxGeometry relative="1" as="geometry" />
        </mxCell>
        <mxCell id="FWnUGxDhom7YC9OjYNfa-83" style="edgeStyle=none;shape=connector;rounded=0;orthogonalLoop=1;jettySize=auto;html=1;exitX=1;exitY=0.5;exitDx=0;exitDy=0;entryX=0;entryY=0.5;entryDx=0;entryDy=0;strokeColor=default;strokeWidth=2;align=center;verticalAlign=middle;fontFamily=Helvetica;fontSize=11;fontColor=default;labelBackgroundColor=default;endArrow=none;endFill=0;" parent="1" source="FWnUGxDhom7YC9OjYNfa-84" target="FWnUGxDhom7YC9OjYNfa-88" edge="1">
          <mxGeometry relative="1" as="geometry" />
        </mxCell>
        <mxCell id="FWnUGxDhom7YC9OjYNfa-84" value="" style="ellipse;whiteSpace=wrap;html=1;strokeWidth=2;fillColor=#97D077;" parent="1" vertex="1">
          <mxGeometry x="250" y="416" width="30" height="15" as="geometry" />
        </mxCell>
        <mxCell id="FWnUGxDhom7YC9OjYNfa-110" style="edgeStyle=none;shape=connector;rounded=0;orthogonalLoop=1;jettySize=auto;html=1;exitX=0;exitY=1;exitDx=0;exitDy=0;entryX=1;entryY=0;entryDx=0;entryDy=0;dashed=1;strokeColor=#FF6666;strokeWidth=2;align=center;verticalAlign=middle;fontFamily=Helvetica;fontSize=11;fontColor=default;labelBackgroundColor=default;endArrow=classicThin;endFill=1;" parent="1" source="FWnUGxDhom7YC9OjYNfa-85" target="FWnUGxDhom7YC9OjYNfa-84" edge="1">
          <mxGeometry relative="1" as="geometry" />
        </mxCell>
        <mxCell id="FWnUGxDhom7YC9OjYNfa-85" value="" style="ellipse;whiteSpace=wrap;html=1;strokeWidth=2;fillColor=#A9C4EB;dashed=1;strokeColor=#FF6666;" parent="1" vertex="1">
          <mxGeometry x="305" y="376" width="30" height="15" as="geometry" />
        </mxCell>
        <mxCell id="FWnUGxDhom7YC9OjYNfa-86" style="rounded=0;orthogonalLoop=1;jettySize=auto;html=1;exitX=1;exitY=0;exitDx=0;exitDy=0;entryX=0;entryY=0.5;entryDx=0;entryDy=0;strokeWidth=2;endArrow=none;endFill=0;" parent="1" source="FWnUGxDhom7YC9OjYNfa-88" target="FWnUGxDhom7YC9OjYNfa-93" edge="1">
          <mxGeometry relative="1" as="geometry" />
        </mxCell>
        <mxCell id="FWnUGxDhom7YC9OjYNfa-87" style="edgeStyle=none;shape=connector;rounded=0;orthogonalLoop=1;jettySize=auto;html=1;exitX=1;exitY=0.5;exitDx=0;exitDy=0;entryX=0;entryY=0.5;entryDx=0;entryDy=0;strokeColor=default;strokeWidth=2;align=center;verticalAlign=middle;fontFamily=Helvetica;fontSize=11;fontColor=default;labelBackgroundColor=default;endArrow=none;endFill=0;" parent="1" source="FWnUGxDhom7YC9OjYNfa-88" target="FWnUGxDhom7YC9OjYNfa-97" edge="1">
          <mxGeometry relative="1" as="geometry" />
        </mxCell>
        <mxCell id="FWnUGxDhom7YC9OjYNfa-88" value="" style="ellipse;whiteSpace=wrap;html=1;strokeWidth=2;fillColor=#A9C4EB;" parent="1" vertex="1">
          <mxGeometry x="370" y="406" width="30" height="15" as="geometry" />
        </mxCell>
        <mxCell id="FWnUGxDhom7YC9OjYNfa-89" style="edgeStyle=none;shape=connector;rounded=0;orthogonalLoop=1;jettySize=auto;html=1;exitX=0.5;exitY=1;exitDx=0;exitDy=0;entryX=0.5;entryY=0;entryDx=0;entryDy=0;strokeColor=default;strokeWidth=2;align=center;verticalAlign=middle;fontFamily=Helvetica;fontSize=11;fontColor=default;labelBackgroundColor=default;endArrow=none;endFill=0;" parent="1" source="FWnUGxDhom7YC9OjYNfa-90" target="FWnUGxDhom7YC9OjYNfa-91" edge="1">
          <mxGeometry relative="1" as="geometry">
            <Array as="points" />
          </mxGeometry>
        </mxCell>
        <mxCell id="FWnUGxDhom7YC9OjYNfa-90" value="" style="ellipse;whiteSpace=wrap;html=1;strokeWidth=2;fillColor=#A9C4EB;" parent="1" vertex="1">
          <mxGeometry x="620" y="366" width="30" height="15" as="geometry" />
        </mxCell>
        <mxCell id="FWnUGxDhom7YC9OjYNfa-91" value="" style="ellipse;whiteSpace=wrap;html=1;strokeWidth=2;fillColor=#A9C4EB;" parent="1" vertex="1">
          <mxGeometry x="585" y="421" width="30" height="15" as="geometry" />
        </mxCell>
        <mxCell id="FWnUGxDhom7YC9OjYNfa-92" style="edgeStyle=none;shape=connector;rounded=0;orthogonalLoop=1;jettySize=auto;html=1;exitX=1;exitY=0.5;exitDx=0;exitDy=0;entryX=0;entryY=0.5;entryDx=0;entryDy=0;strokeColor=default;strokeWidth=2;align=center;verticalAlign=middle;fontFamily=Helvetica;fontSize=11;fontColor=default;labelBackgroundColor=default;endArrow=none;endFill=0;" parent="1" source="FWnUGxDhom7YC9OjYNfa-93" target="FWnUGxDhom7YC9OjYNfa-90" edge="1">
          <mxGeometry relative="1" as="geometry" />
        </mxCell>
        <mxCell id="FWnUGxDhom7YC9OjYNfa-93" value="" style="ellipse;whiteSpace=wrap;html=1;strokeWidth=2;fillColor=#A9C4EB;" parent="1" vertex="1">
          <mxGeometry x="480" y="376" width="30" height="15" as="geometry" />
        </mxCell>
        <mxCell id="FWnUGxDhom7YC9OjYNfa-94" style="rounded=0;orthogonalLoop=1;jettySize=auto;html=1;exitX=1;exitY=0.5;exitDx=0;exitDy=0;entryX=0;entryY=0.5;entryDx=0;entryDy=0;shape=wire;dashed=1;endArrow=none;endFill=0;jumpStyle=arc;strokeWidth=2;" parent="1" source="FWnUGxDhom7YC9OjYNfa-95" target="FWnUGxDhom7YC9OjYNfa-85" edge="1">
          <mxGeometry relative="1" as="geometry" />
        </mxCell>
        <mxCell id="FWnUGxDhom7YC9OjYNfa-95" value="" style="ellipse;whiteSpace=wrap;html=1;strokeWidth=2;fillColor=#A9C4EB;" parent="1" vertex="1">
          <mxGeometry x="200" y="366" width="30" height="15" as="geometry" />
        </mxCell>
        <mxCell id="FWnUGxDhom7YC9OjYNfa-96" style="edgeStyle=none;shape=connector;rounded=0;orthogonalLoop=1;jettySize=auto;html=1;exitX=0.5;exitY=0;exitDx=0;exitDy=0;entryX=0.5;entryY=1;entryDx=0;entryDy=0;strokeColor=default;strokeWidth=2;align=center;verticalAlign=middle;fontFamily=Helvetica;fontSize=11;fontColor=default;labelBackgroundColor=default;endArrow=none;endFill=0;" parent="1" source="FWnUGxDhom7YC9OjYNfa-97" target="FWnUGxDhom7YC9OjYNfa-93" edge="1">
          <mxGeometry relative="1" as="geometry" />
        </mxCell>
        <mxCell id="FWnUGxDhom7YC9OjYNfa-97" value="" style="ellipse;whiteSpace=wrap;html=1;strokeWidth=2;fillColor=#A9C4EB;" parent="1" vertex="1">
          <mxGeometry x="460" y="421" width="30" height="15" as="geometry" />
        </mxCell>
        <mxCell id="FWnUGxDhom7YC9OjYNfa-99" value="" style="ellipse;whiteSpace=wrap;html=1;strokeWidth=2;fillColor=#CDA2BE;dashed=1;" parent="1" vertex="1">
          <mxGeometry x="160" y="421" width="30" height="15" as="geometry" />
        </mxCell>
        <mxCell id="FWnUGxDhom7YC9OjYNfa-100" value="" style="ellipse;whiteSpace=wrap;html=1;strokeWidth=2;fillColor=#CDA2BE;dashed=1;" parent="1" vertex="1">
          <mxGeometry x="160" y="291" width="30" height="15" as="geometry" />
        </mxCell>
        <mxCell id="FWnUGxDhom7YC9OjYNfa-108" style="edgeStyle=none;shape=connector;rounded=0;orthogonalLoop=1;jettySize=auto;html=1;exitX=1;exitY=0.5;exitDx=0;exitDy=0;entryX=0;entryY=0.5;entryDx=0;entryDy=0;dashed=1;strokeColor=#FF6666;strokeWidth=2;align=center;verticalAlign=middle;fontFamily=Helvetica;fontSize=11;fontColor=default;labelBackgroundColor=default;endArrow=classicThin;endFill=1;" parent="1" source="FWnUGxDhom7YC9OjYNfa-77" target="FWnUGxDhom7YC9OjYNfa-67" edge="1">
          <mxGeometry relative="1" as="geometry">
            <mxPoint x="270" y="246" as="sourcePoint" />
            <mxPoint x="345" y="256" as="targetPoint" />
          </mxGeometry>
        </mxCell>
        <mxCell id="FWnUGxDhom7YC9OjYNfa-111" value="&lt;font style=&quot;font-size: 20px;&quot;&gt;&lt;b&gt;Layer 3&lt;/b&gt;&lt;/font&gt;" style="text;html=1;align=center;verticalAlign=middle;resizable=0;points=[];autosize=1;strokeColor=none;fillColor=light-dark(#fff2cc, transparent);fontFamily=Helvetica;fontSize=11;fontColor=default;labelBackgroundColor=default;opacity=0;" parent="1" vertex="1">
          <mxGeometry y="121" width="90" height="40" as="geometry" />
        </mxCell>
        <mxCell id="FWnUGxDhom7YC9OjYNfa-112" value="&lt;font style=&quot;font-size: 20px;&quot;&gt;&lt;b&gt;Layer 2&lt;/b&gt;&lt;/font&gt;" style="text;html=1;align=center;verticalAlign=middle;resizable=0;points=[];autosize=1;strokeColor=none;fillColor=none;fontFamily=Helvetica;fontSize=11;fontColor=default;labelBackgroundColor=default;opacity=0;" parent="1" vertex="1">
          <mxGeometry y="251" width="90" height="40" as="geometry" />
        </mxCell>
        <mxCell id="FWnUGxDhom7YC9OjYNfa-113" value="&lt;font style=&quot;font-size: 20px;&quot;&gt;&lt;b&gt;Layer 1&lt;/b&gt;&lt;/font&gt;" style="text;html=1;align=center;verticalAlign=middle;resizable=0;points=[];autosize=1;strokeColor=#d6b656;fillColor=light-dark(#fff2cc, transparent);fontFamily=Helvetica;fontSize=11;labelBackgroundColor=default;opacity=0;" parent="1" vertex="1">
          <mxGeometry y="381" width="90" height="40" as="geometry" />
        </mxCell>
        <mxCell id="dLKc0o8yFrBXDjnUZ-SF-2" value="&lt;div&gt;&lt;b&gt;&lt;font style=&quot;font-size: 13px;&quot;&gt;Default&lt;/font&gt;&lt;/b&gt;&lt;/div&gt;&lt;div&gt;&lt;b&gt;&lt;font style=&quot;font-size: 13px;&quot;&gt;e&lt;/font&gt;&lt;/b&gt;&lt;font style=&quot;font-size: 13px;&quot;&gt;&lt;b&gt;&lt;font&gt;ntry node&lt;/font&gt;&lt;/b&gt;&lt;/font&gt;&lt;/div&gt;" style="text;html=1;align=center;verticalAlign=middle;resizable=0;points=[];autosize=1;strokeColor=none;fillColor=none;" vertex="1" parent="1">
          <mxGeometry x="590" y="121" width="90" height="40" as="geometry" />
        </mxCell>
        <mxCell id="dLKc0o8yFrBXDjnUZ-SF-6" value="&lt;div&gt;&lt;font style=&quot;font-size: 13px;&quot;&gt;&lt;b&gt;Query&#39;s actual&lt;/b&gt;&lt;/font&gt;&lt;/div&gt;&lt;div&gt;&lt;font style=&quot;font-size: 13px;&quot;&gt;&lt;b&gt;(unknown) location&lt;/b&gt;&lt;/font&gt;&lt;/div&gt;" style="text;html=1;align=center;verticalAlign=middle;resizable=0;points=[];autosize=1;strokeColor=none;fillColor=default;opacity=60;" vertex="1" parent="1">
          <mxGeometry x="185" y="148.5" width="140" height="40" as="geometry" />
        </mxCell>
        <mxCell id="dLKc0o8yFrBXDjnUZ-SF-9" style="edgeStyle=none;shape=connector;rounded=0;orthogonalLoop=1;jettySize=auto;html=1;exitX=0.5;exitY=1;exitDx=0;exitDy=0;entryX=0.5;entryY=0;entryDx=0;entryDy=0;dashed=1;strokeColor=#FF6666;strokeWidth=2;align=center;verticalAlign=middle;fontFamily=Helvetica;fontSize=11;fontColor=default;labelBackgroundColor=default;endArrow=classicThin;endFill=1;" edge="1" parent="1" source="dLKc0o8yFrBXDjnUZ-SF-7" target="FWnUGxDhom7YC9OjYNfa-46">
          <mxGeometry relative="1" as="geometry" />
        </mxCell>
        <mxCell id="dLKc0o8yFrBXDjnUZ-SF-7" value="" style="ellipse;whiteSpace=wrap;html=1;strokeWidth=2;fillColor=#CDA2BE;" vertex="1" parent="1">
          <mxGeometry x="620" y="6" width="30" height="30" as="geometry" />
        </mxCell>
        <mxCell id="dLKc0o8yFrBXDjnUZ-SF-8" value="&lt;div align=&quot;left&quot;&gt;&lt;font style=&quot;font-size: 13px;&quot;&gt;&lt;b&gt;Query&lt;/b&gt;&lt;/font&gt;&lt;/div&gt;" style="text;html=1;align=left;verticalAlign=middle;resizable=0;points=[];autosize=1;strokeColor=none;fillColor=none;" vertex="1" parent="1">
          <mxGeometry x="660" y="6" width="60" height="30" as="geometry" />
        </mxCell>
        <mxCell id="dLKc0o8yFrBXDjnUZ-SF-10" value="&lt;div&gt;&lt;font style=&quot;font-size: 13px;&quot;&gt;&lt;b&gt;Closest neighbor&lt;/b&gt;&lt;/font&gt;&lt;/div&gt;" style="text;html=1;align=center;verticalAlign=middle;resizable=0;points=[];autosize=1;strokeColor=none;fillColor=none;" vertex="1" parent="1">
          <mxGeometry x="195" y="427" width="130" height="30" as="geometry" />
        </mxCell>
        <mxCell id="FWnUGxDhom7YC9OjYNfa-98" value="" style="ellipse;whiteSpace=wrap;html=1;strokeWidth=2;fillColor=#CDA2BE;dashed=1;" parent="1" vertex="1">
          <mxGeometry x="160" y="161" width="30" height="15" as="geometry" />
        </mxCell>
      </root>
    </mxGraphModel>
  </diagram>
</mxfile>
